<svg width="495" height="498" viewBox="0 0 495 498" fill="none" xmlns="http://www.w3.org/2000/svg">
<rect width="495" height="498" rx="60" fill="#003E74"/>
<path d="M451 128C441 100 366 10 251 10C100 10 9 127.975 9 255" stroke="#EBEEEE" stroke-width="6"/>
<path d="M16 309H70.5943C86.9731 309 101.113 297.527 104.488 281.5L108.764 259L111.377 239C113.682 215.177 133.702 197 157.637 197H399.901" stroke="#EBEEEE" stroke-width="6"/>
<path d="M258.414 312V209.091H264.695V268.836H265.399L319.667 209.091H328.008L283.337 257.782L327.606 312H319.768L279.318 262.304L264.695 278.484V312H258.414Z" fill="#EBEEEE"/>
<path d="M400.847 312V209.091H343.564V214.92H394.566V257.581H346.629V263.41H394.566V306.171H342.358V312H400.847Z" fill="#EBEEEE"/>
<path d="M232.515 209H237.527V312H232.515V209Z" fill="#EBEEEE"/>
<path d="M224.497 209H229.508V312H224.497V209Z" fill="#EBEEEE"/>
<rect x="149.323" y="209" width="6.01386" height="103" fill="#EBEEEE"/>
<rect x="155.337" y="258" width="31.0716" height="6" fill="#EBEEEE"/>
<rect x="155.337" y="209" width="31.0716" height="6" fill="#EBEEEE"/>
<path d="M185.406 209C200.352 209 212.469 221.312 212.469 236.5C212.469 251.688 200.352 264 185.406 264C185.406 264 185.406 261.779 185.406 257.977C197.119 257.466 206.455 248.047 206.455 236.5C206.455 224.953 197.119 215.533 185.406 215.022V209Z" fill="#EBEEEE"/>
<path d="M9 255C9 382.026 115.422 485 246.701 485C377.979 485 484.402 382.026 484.402 255C484.402 193.5 428.5 197 399.5 197" stroke="white" stroke-width="6"/>
</svg>
